# Blender v2.78 (sub 0) OBJ File: ''
# www.blender.org
mtllib cube.mtl
v -0.996042 -1.008818 1.001908
v -0.996042 0.991182 1.001908
v -0.996042 -1.008818 -0.998092
v -0.996042 0.991182 -0.998092
v 1.000000 -1.000000 1.000000
v 1.000000 1.000000 1.000000
v 1.000000 -1.000000 -1.000000
v 1.000000 1.000000 -1.000000
vt 0.0001 0.2500
vt 0.2500 0.5000
vt 0.0001 0.5000
vt 0.2500 0.2500
vt 0.5000 0.5000
vt 0.5000 0.2500
vt 0.7500 0.5000
vt 0.5000 0.7500
vt 0.2500 0.9999
vt 0.2500 0.7500
vt 0.5000 0.0001
vt 0.7500 0.2500
vt 0.5000 0.9999
vt 0.2500 0.0001
vn -1.0000 0.0000 0.0000
vn -0.0010 0.0000 -1.0000
vn 1.0000 0.0000 0.0000
vn 0.0010 0.0000 1.0000
vn 0.0044 -1.0000 0.0000
vn -0.0044 1.0000 0.0000
usemtl None
s off
f 2/1/1 3/2/1 1/3/1
f 4/4/2 7/5/2 3/2/2
f 8/6/3 5/7/3 7/5/3
f 5/8/4 2/9/4 1/10/4
f 3/2/5 5/8/5 1/10/5
f 4/4/6 6/11/6 8/6/6
f 2/1/1 4/4/1 3/2/1
f 4/4/2 8/6/2 7/5/2
f 8/6/3 6/12/3 5/7/3
f 5/8/4 6/13/4 2/9/4
f 3/2/5 7/5/5 5/8/5
f 4/4/6 2/14/6 6/11/6
